<?xml version="1.0" encoding="UTF-8"?>
<!DOCTYPE svg PUBLIC "-//W3C//DTD SVG 1.1//EN" "http://www.w3.org/Graphics/SVG/1.1/DTD/svg11.dtd">
<svg xmlns="http://www.w3.org/2000/svg" version="1.1" width="689px" height="709px" style="shape-rendering:geometricPrecision; text-rendering:geometricPrecision; image-rendering:optimizeQuality; fill-rule:evenodd; clip-rule:evenodd" xmlns:xlink="http://www.w3.org/1999/xlink">
<g><path style="opacity:0.004" fill="#000000" d="M 138.5,22.5 C 139.833,23.1667 139.833,23.1667 138.5,22.5 Z"/></g>
<g><path style="opacity:0.016" fill="#3e3f3e" d="M 341.5,24.5 C 342.833,25.1667 342.833,25.1667 341.5,24.5 Z"/></g>
<g><path style="opacity:0.997" fill="#060706" d="M 354.5,34.5 C 358.148,37.6599 362.148,40.3265 366.5,42.5C 369.65,45.5792 373.317,47.9125 377.5,49.5C 377.842,50.3382 378.508,50.6716 379.5,50.5C 388.194,56.5163 397.527,61.5163 407.5,65.5C 413.196,68.6776 419.196,71.3443 425.5,73.5C 427.509,75.0652 429.843,76.0652 432.5,76.5C 464.929,90.7712 498.262,100.438 532.5,105.5C 565.149,111.242 598.149,112.908 631.5,110.5C 632.232,117.476 632.565,124.476 632.5,131.5C 632.436,143.028 633.103,154.362 634.5,165.5C 638.743,245.62 629.076,324.286 605.5,401.5C 577.581,482.179 531.581,550.679 467.5,607C 455.935,616.743 444.268,626.243 432.5,635.5C 430.611,636.604 428.945,637.937 427.5,639.5C 423.779,641.354 420.446,643.687 417.5,646.5C 402.634,656.43 387.634,666.096 372.5,675.5C 370.847,675.66 369.514,676.326 368.5,677.5C 364.832,678.998 361.498,680.998 358.5,683.5C 353.966,685.845 349.3,688.011 344.5,690C 344.07,690.92 343.736,691.753 343.5,692.5C 339.757,689.962 335.757,687.962 331.5,686.5C 331.5,685.833 331.167,685.5 330.5,685.5C 322.336,680.583 314.003,675.917 305.5,671.5C 302.75,669.938 300.084,668.271 297.5,666.5C 295.795,664.808 293.795,663.475 291.5,662.5C 288.106,659.779 284.439,657.446 280.5,655.5C 278.469,653.478 276.135,651.811 273.5,650.5C 271.469,648.478 269.135,646.811 266.5,645.5C 261.017,641.257 255.35,637.257 249.5,633.5C 248.415,631.413 246.749,630.08 244.5,629.5C 243.421,627.457 241.754,626.124 239.5,625.5C 238.738,623.738 237.404,622.738 235.5,622.5C 233.12,619.119 230.12,616.453 226.5,614.5C 223.874,612.177 221.207,609.843 218.5,607.5C 215.585,604.041 212.252,601.041 208.5,598.5C 206.539,596.037 204.372,593.703 202,591.5C 201.667,591.833 201.333,592.167 201,592.5C 200.153,590.807 199.32,589.14 198.5,587.5C 195.769,583.766 192.436,580.766 188.5,578.5C 187.542,577.038 186.376,575.705 185,574.5C 184.667,575.167 184.333,575.833 184,576.5C 182.858,572.186 180.358,568.852 176.5,566.5C 174.628,563.418 172.295,560.751 169.5,558.5C 169.5,557.833 169.167,557.5 168.5,557.5C 167.299,555.091 165.633,553.091 163.5,551.5C 161.528,547.895 158.861,544.895 155.5,542.5C 155.573,540.973 154.906,539.973 153.5,539.5C 151.901,536.488 149.567,533.488 146.5,530.5C 146.573,528.973 145.906,527.973 144.5,527.5C 140.591,520.82 135.925,514.154 130.5,507.5C 128.582,502.657 125.916,498.323 122.5,494.5C 119.89,489.233 116.89,484.233 113.5,479.5C 113.672,478.508 113.338,477.842 112.5,477.5C 112.008,475.181 111.008,473.181 109.5,471.5C 109.586,470.504 109.252,469.671 108.5,469C 107.167,468.667 105.833,468.333 104.5,468C 106.968,466.412 107.134,464.578 105,462.5C 104.667,462.833 104.333,463.167 104,463.5C 102.505,461.89 102.339,460.224 103.5,458.5C 103.058,457.261 102.391,456.261 101.5,455.5C 101.008,453.181 100.008,451.181 98.5,449.5C 92.1822,434.545 86.1822,419.545 80.5,404.5C 79.2724,397.822 77.2724,391.488 74.5,385.5C 74.7373,384.209 74.404,383.209 73.5,382.5C 73.7062,379.505 73.0395,376.838 71.5,374.5C 70.8091,369.402 69.6425,364.402 68,359.5C 67.0862,360.654 66.2529,360.487 65.5,359C 66.428,358.612 67.0946,357.945 67.5,357C 66.4165,353.772 65.0831,350.938 63.5,348.5C 64.2494,346.759 64.5827,345.092 64.5,343.5C 62.2134,330.972 59.5468,318.972 56.5,307.5C 57.1239,307.083 57.4573,306.416 57.5,305.5C 56.5047,300.204 55.838,294.871 55.5,289.5C 55.784,283.583 55.1173,277.916 53.5,272.5C 52.8918,268.528 52.3918,264.528 52,260.5C 51.5,260 51,259.5 50.5,259C 51.4601,255.27 51.7935,251.437 51.5,247.5C 51.8205,242.305 51.4872,237.305 50.5,232.5C 48.6863,191.765 49.6863,151.098 53.5,110.5C 56.7131,110.19 59.7131,110.523 62.5,111.5C 77.1667,112.833 91.8333,112.833 106.5,111.5C 108.5,111.5 110.5,111.5 112.5,111.5C 121.412,111.411 130.079,110.411 138.5,108.5C 141.413,107.759 144.413,107.259 147.5,107C 146.16,104.821 146.493,104.321 148.5,105.5C 162.559,104.66 176.559,102.16 190.5,98C 189.304,97.3457 189.304,96.8457 190.5,96.5C 191.446,96.9867 192.446,97.3201 193.5,97.5C 199.045,96.1206 204.379,94.454 209.5,92.5C 219.914,90.1397 229.914,86.8063 239.5,82.5C 240.492,82.6716 241.158,82.3382 241.5,81.5C 248.629,79.7947 255.296,77.128 261.5,73.5C 265.151,72.3411 268.485,70.6744 271.5,68.5C 272.492,68.6716 273.158,68.3382 273.5,67.5C 275.553,67.5979 277.22,66.9313 278.5,65.5C 281.992,64.5903 284.992,62.9236 287.5,60.5C 289.97,60.3465 291.97,59.3465 293.5,57.5C 297.173,55.9998 300.506,53.9998 303.5,51.5C 305.153,51.3404 306.486,50.6737 307.5,49.5C 311.433,46.837 315.1,44.5037 318.5,42.5C 326.822,37.1834 335.156,31.85 343.5,26.5C 347.01,29.418 350.677,32.0846 354.5,34.5 Z M 352.5,77.5 C 353.71,77.9321 354.71,78.5987 355.5,79.5C 357.882,80.3507 359.882,81.684 361.5,83.5C 362.492,83.3284 363.158,83.6618 363.5,84.5C 372.873,89.5183 382.206,94.5183 391.5,99.5C 400.175,103.064 407.842,106.398 414.5,109.5C 421.5,111.678 428.166,114.345 434.5,117.5C 441.531,119.064 448.198,121.398 454.5,124.5C 458.893,124.457 459.226,124.957 455.5,126C 456.609,126.638 457.775,127.138 459,127.5C 460.011,127.108 460.511,126.441 460.5,125.5C 461.192,126.025 461.692,126.692 462,127.5C 462.561,126.978 463.228,126.645 464,126.5C 469.144,128.078 474.311,129.578 479.5,131C 478.402,131.77 478.402,132.603 479.5,133.5C 479.833,133.5 480.167,133.5 480.5,133.5C 480.47,132.503 480.97,131.836 482,131.5C 485.356,132.29 488.523,133.29 491.5,134.5C 499.015,135.881 506.348,137.548 513.5,139.5C 526.948,141.769 540.448,143.769 554,145.5C 555.787,145.759 557.287,146.425 558.5,147.5C 562.167,146.167 565.833,146.167 569.5,147.5C 575.167,147.5 580.833,147.5 586.5,147.5C 590.298,148.483 594.298,148.817 598.5,148.5C 598.5,149.833 598.5,151.167 598.5,152.5C 604.665,224.367 597.498,297.367 577,371.5C 574.61,380.099 571.776,388.432 568.5,396.5C 562.626,416.134 554.626,434.801 544.5,452.5C 540.923,460.661 536.589,468.328 531.5,475.5C 531.25,477.674 530.25,479.341 528.5,480.5C 527.241,484.025 525.241,487.025 522.5,489.5C 521.617,492.704 519.95,495.371 517.5,497.5C 515.975,500.563 513.975,503.23 511.5,505.5C 509.555,509.736 506.888,513.403 503.5,516.5C 500.179,521.152 496.513,525.485 492.5,529.5C 490.906,532.764 488.573,535.431 485.5,537.5C 484.92,539.749 483.587,541.415 481.5,542.5C 481.167,543.5 480.5,544.167 479.5,544.5C 477,547.832 474,550.666 470.5,553C 470.833,553.333 471.167,553.667 471.5,554C 465.338,558.478 460.004,563.311 455.5,568.5C 454.167,570.5 452.5,572.167 450.5,573.5C 447.401,577.534 443.734,580.868 439.5,583.5C 422.31,599.027 403.977,613.027 384.5,625.5C 382.853,627.326 380.853,628.66 378.5,629.5C 375.106,632.221 371.439,634.554 367.5,636.5C 365.178,638.664 362.511,640.331 359.5,641.5C 354.061,645.059 348.394,648.392 342.5,651.5C 337.935,649.059 333.602,646.392 329.5,643.5C 323.332,640.92 317.665,637.586 312.5,633.5C 308.779,631.646 305.446,629.313 302.5,626.5C 298.951,625.277 295.951,623.277 293.5,620.5C 279.313,611.647 265.979,601.647 253.5,590.5C 243.877,583.215 234.543,574.881 225.5,565.5C 222.833,563.5 220.5,561.167 218.5,558.5C 207.772,548.139 198.105,537.472 189.5,526.5C 187.457,525.421 186.124,523.754 185.5,521.5C 183.457,520.421 182.124,518.754 181.5,516.5C 177.738,513.071 174.738,509.071 172.5,504.5C 170.478,502.469 168.811,500.135 167.5,497.5C 135.096,450.424 113.096,399.424 101.5,344.5C 96.8442,327.473 93.1775,309.807 90.5,291.5C 90.3601,289.876 91.0267,288.71 92.5,288C 91.572,287.612 90.9054,286.945 90.5,286C 89.9646,283.004 89.2979,280.171 88.5,277.5C 87.7955,264.425 86.7955,251.425 85.5,238.5C 85.1816,228.917 85.5149,219.417 86.5,210C 83.9194,207.84 83.9194,205.674 86.5,203.5C 86.1543,202.304 85.6543,202.304 85,203.5C 84.67,196.006 84.5033,188.672 84.5,181.5C 85.183,174.766 85.8496,167.932 86.5,161C 85.6634,159.989 85.33,158.822 85.5,157.5C 86.4767,154.713 86.81,151.713 86.5,148.5C 89.0593,148.802 91.3926,148.468 93.5,147.5C 93.8333,147.5 94.1667,147.5 94.5,147.5C 94.4346,147.938 94.6012,148.272 95,148.5C 101.599,147.85 108.099,147.184 114.5,146.5C 129.896,145.396 145.229,143.729 160.5,141.5C 160.842,140.662 161.508,140.328 162.5,140.5C 165.833,140.167 169.167,139.833 172.5,139.5C 173.833,138.833 175.167,138.167 176.5,137.5C 187.941,135.578 199.275,133.078 210.5,130C 223.821,125.726 237.155,121.559 250.5,117.5C 268.667,110.087 286.667,102.087 304.5,93.5C 309.333,90.5824 314.333,87.9157 319.5,85.5C 327.038,80.4751 334.872,75.8084 343,71.5C 346.33,73.3476 349.497,75.3476 352.5,77.5 Z M 432.5,251.5 C 433.5,251.833 434.167,252.5 434.5,253.5C 433.833,253.5 433.167,253.5 432.5,253.5C 432.5,252.833 432.5,252.167 432.5,251.5 Z M 191.5,302.5 C 192.598,303.601 192.765,304.934 192,306.5C 191.722,305.584 191.222,304.918 190.5,304.5C 190.833,303.833 191.167,303.167 191.5,302.5 Z"/></g>
<g><path style="opacity:0.004" fill="#000000" d="M 626.5,30.5 C 627.833,31.1667 627.833,31.1667 626.5,30.5 Z"/></g>
<g><path style="opacity:0.004" fill="#000000" d="M 327.5,32.5 C 328.525,32.8966 328.692,33.5632 328,34.5C 327.536,33.9056 327.369,33.2389 327.5,32.5 Z"/></g>
<g><path style="opacity:0.004" fill="#000000" d="M 356.5,33.5 C 356.897,32.475 357.563,32.3083 358.5,33C 357.906,33.4643 357.239,33.631 356.5,33.5 Z"/></g>
<g><path style="opacity:0.004" fill="#000000" d="M 354.5,33.5 C 355.833,34.1667 355.833,34.1667 354.5,33.5 Z"/></g>
<g><path style="opacity:0.004" fill="#000000" d="M 234.5,38.5 C 235.833,39.1667 235.833,39.1667 234.5,38.5 Z"/></g>
<g><path style="opacity:0.005" fill="#1e1c09" d="M 316.5,41.5 C 315.503,42.7125 314.503,42.5458 313.5,41C 314.577,40.5304 315.577,40.6971 316.5,41.5 Z"/></g>
<g><path style="opacity:0.004" fill="#000000" d="M 317.5,41.5 C 316.833,40.1667 316.833,40.1667 317.5,41.5 Z"/></g>
<g><path style="opacity:0.004" fill="#000000" d="M 310.5,41.5 C 311.833,42.1667 311.833,42.1667 310.5,41.5 Z"/></g>
<g><path style="opacity:0.008" fill="#000000" d="M 317.5,41.5 C 318.167,41.5 318.5,41.8333 318.5,42.5C 318.167,42.1667 317.833,41.8333 317.5,41.5 Z"/></g>
<g><path style="opacity:0.008" fill="#000000" d="M 366.5,41.5 C 367.833,42.1667 367.833,42.1667 366.5,41.5 Z"/></g>
<g><path style="opacity:0.004" fill="#000000" d="M 311.5,44.5 C 310.833,43.1667 310.833,43.1667 311.5,44.5 Z"/></g>
<g><path style="opacity:0.008" fill="#000000" d="M 311.5,44.5 C 312.833,45.1667 312.833,45.1667 311.5,44.5 Z"/></g>
<g><path style="opacity:0.004" fill="#000000" d="M 307.5,49.5 C 306.833,48.1667 306.833,48.1667 307.5,49.5 Z"/></g>
<g><path style="opacity:0.004" fill="#000000" d="M 377.5,48.5 C 378.833,49.1667 378.833,49.1667 377.5,48.5 Z"/></g>
<g><path style="opacity:0.012" fill="#393939" d="M 303.5,50.5 C 303.369,49.7611 303.536,49.0944 304,48.5C 304.692,49.4368 304.525,50.1034 303.5,50.5 Z"/></g>
<g><path style="opacity:0.004" fill="#000000" d="M 379.5,49.5 C 380.833,50.1667 380.833,50.1667 379.5,49.5 Z"/></g>
<g><path style="opacity:0.004" fill="#000000" d="M 303.5,50.5 C 303.5,50.8333 303.5,51.1667 303.5,51.5C 302.83,51.0187 302.83,50.6853 303.5,50.5 Z"/></g>
<g><path style="opacity:0.004" fill="#000000" d="M 287.5,56.5 C 288.833,57.1667 288.833,57.1667 287.5,56.5 Z"/></g>
<g><path style="opacity:0.012" fill="#545554" d="M 293.5,57.5 C 292.833,56.1667 292.833,56.1667 293.5,57.5 Z"/></g>
<g><path style="opacity:0.004" fill="#000000" d="M 287.5,60.5 C 286.833,59.1667 286.833,59.1667 287.5,60.5 Z"/></g>
<g><path style="opacity:0.016" fill="#2b2b2b" d="M 278.5,65.5 C 277.761,65.631 277.094,65.4643 276.5,65C 277.437,64.3083 278.103,64.475 278.5,65.5 Z"/></g>
<g><path style="opacity:0.008" fill="#1f1f1f" d="M 407.5,65.5 C 407.897,64.475 408.563,64.3083 409.5,65C 408.906,65.4643 408.239,65.631 407.5,65.5 Z"/></g>
<g><path style="opacity:0.008" fill="#7e0000" d="M 274.5,65.5 C 275.833,66.1667 275.833,66.1667 274.5,65.5 Z"/></g>
<g><path style="opacity:0.004" fill="#000000" d="M 273.5,67.5 C 272.833,66.1667 272.833,66.1667 273.5,67.5 Z"/></g>
<g><path style="opacity:0.004" fill="#000000" d="M 271.5,68.5 C 270.833,67.1667 270.833,67.1667 271.5,68.5 Z"/></g>
<g><path style="opacity:0.004" fill="#000000" d="M 234.5,70.5 C 235.833,71.1667 235.833,71.1667 234.5,70.5 Z"/></g>
<g><path style="opacity:0.008" fill="#7e7f00" d="M 251.5,72.5 C 252.525,72.8966 252.692,73.5632 252,74.5C 251.536,73.9056 251.369,73.2389 251.5,72.5 Z"/></g>
<g><path style="opacity:0.004" fill="#000000" d="M 255.5,72.5 C 256.833,73.1667 256.833,73.1667 255.5,72.5 Z"/></g>
<g><path style="opacity:0.012" fill="#545554" d="M 261.5,73.5 C 260.833,72.1667 260.833,72.1667 261.5,73.5 Z"/></g>
<g><path style="opacity:0.024" fill="#1e1e1e" d="M 425.5,73.5 C 425.897,72.475 426.563,72.3083 427.5,73C 426.906,73.4643 426.239,73.631 425.5,73.5 Z"/></g>
<g><path style="opacity:0.004" fill="#000000" d="M 246.5,73.5 C 247.833,74.1667 247.833,74.1667 246.5,73.5 Z"/></g>
<g><path style="opacity:0.008" fill="#7e7f00" d="M 432.5,75.5 C 433.833,76.1667 433.833,76.1667 432.5,75.5 Z"/></g>
<g><path style="opacity:0.004" fill="#000000" d="M 435.5,76.5 C 436.833,77.1667 436.833,77.1667 435.5,76.5 Z"/></g>
<g><path style="opacity:0.004" fill="#191919" d="M 352.5,77.5 C 352.217,78.2891 351.717,78.9558 351,79.5C 350.472,78.184 350.972,77.5173 352.5,77.5 Z"/></g>
<g><path style="opacity:0.004" fill="#000000" d="M 231.5,80.5 C 232.833,81.1667 232.833,81.1667 231.5,80.5 Z"/></g>
<g><path style="opacity:0.008" fill="#7e7f7e" d="M 234.5,80.5 C 235.833,81.1667 235.833,81.1667 234.5,80.5 Z"/></g>
<g><path style="opacity:0.004" fill="#000000" d="M 241.5,81.5 C 240.833,80.1667 240.833,80.1667 241.5,81.5 Z"/></g>
<g><path style="opacity:0.008" fill="#54530d" d="M 239.5,82.5 C 238.761,82.631 238.094,82.4643 237.5,82C 238.437,81.3083 239.103,81.475 239.5,82.5 Z"/></g>
<g><path style="opacity:0.004" fill="#000000" d="M 234.5,82.5 C 235.833,83.1667 235.833,83.1667 234.5,82.5 Z"/></g>
<g><path style="opacity:0.008" fill="#000000" d="M 452.5,82.5 C 453.833,83.1667 453.833,83.1667 452.5,82.5 Z"/></g>
<g><path style="opacity:0.008" fill="#7e7f7e" d="M 230.5,83.5 C 231.833,84.1667 231.833,84.1667 230.5,83.5 Z"/></g>
<g><path style="opacity:0.012" fill="#545554" d="M 215.5,88.5 C 216.833,89.1667 216.833,89.1667 215.5,88.5 Z"/></g>
<g><path style="opacity:0.004" fill="#000000" d="M 217.5,88.5 C 218.833,89.1667 218.833,89.1667 217.5,88.5 Z"/></g>
<g><path style="opacity:0.004" fill="#000000" d="M 472.5,89.5 C 471.833,88.1667 471.833,88.1667 472.5,89.5 Z"/></g>
<g><path style="opacity:0.004" fill="#000000" d="M 475.5,88.5 C 476.833,89.1667 476.833,89.1667 475.5,88.5 Z"/></g>
<g><path style="opacity:0.008" fill="#7e7f7e" d="M 213.5,89.5 C 214.833,90.1667 214.833,90.1667 213.5,89.5 Z"/></g>
<g><path style="opacity:0.004" fill="#000000" d="M 472.5,89.5 C 473.833,90.1667 473.833,90.1667 472.5,89.5 Z"/></g>
<g><path style="opacity:0.004" fill="#000000" d="M 477.5,90.5 C 478.833,91.1667 478.833,91.1667 477.5,90.5 Z"/></g>
<g><path style="opacity:0.004" fill="#403e28" d="M 209.5,92.5 C 208.448,92.6495 207.448,92.4828 206.5,92C 207.749,91.2599 208.749,91.4265 209.5,92.5 Z"/></g>
<g><path style="opacity:0.005" fill="#000000" d="M 378.5,95.5 C 377.711,95.2172 377.044,94.7172 376.5,94C 377.816,93.4719 378.483,93.9719 378.5,95.5 Z"/></g>
<g><path style="opacity:0.004" fill="#000000" d="M 182.5,96.5 C 183.525,96.8966 183.692,97.5632 183,98.5C 182.536,97.9056 182.369,97.2389 182.5,96.5 Z"/></g>
<g><path style="opacity:0.004" fill="#132b0c" d="M 497.5,97.5 C 497.897,96.475 498.563,96.3083 499.5,97C 498.906,97.4643 498.239,97.631 497.5,97.5 Z"/></g>
<g><path style="opacity:0.004" fill="#000000" d="M 173.5,97.5 C 174.833,98.1667 174.833,98.1667 173.5,97.5 Z"/></g>
<g><path style="opacity:0.012" fill="#545554" d="M 184.5,97.5 C 185.833,98.1667 185.833,98.1667 184.5,97.5 Z"/></g>
<g><path style="opacity:0.008" fill="#6d4100" d="M 501.5,96.5 C 502.525,96.8966 502.692,97.5632 502,98.5C 501.536,97.9056 501.369,97.2389 501.5,96.5 Z"/></g>
<g><path style="opacity:0.004" fill="#000000" d="M 507.5,98.5 C 507.897,97.475 508.563,97.3083 509.5,98C 508.906,98.4643 508.239,98.631 507.5,98.5 Z"/></g>
<g><path style="opacity:0.004" fill="#000000" d="M 504.5,98.5 C 505.833,99.1667 505.833,99.1667 504.5,98.5 Z"/></g>
<g><path style="opacity:0.004" fill="#353535" d="M 174.5,100.5 C 175.251,99.4265 176.251,99.2599 177.5,100C 176.552,100.483 175.552,100.649 174.5,100.5 Z"/></g>
<g><path style="opacity:0.008" fill="#403e0f" d="M 508.5,100.5 C 509.251,99.4265 510.251,99.2599 511.5,100C 510.552,100.483 509.552,100.649 508.5,100.5 Z"/></g>
<g><path style="opacity:0.008" fill="#7e7f00" d="M 167.5,101.5 C 168.833,102.167 168.833,102.167 167.5,101.5 Z"/></g>
<g><path style="opacity:0.012" fill="#545554" d="M 143.5,104.5 C 144.833,105.167 144.833,105.167 143.5,104.5 Z"/></g>
<g><path style="opacity:0.004" fill="#000000" d="M 148.5,104.5 C 149.833,105.167 149.833,105.167 148.5,104.5 Z"/></g>
<g><path style="opacity:0.008" fill="#7e7f00" d="M 151.5,104.5 C 152.833,105.167 152.833,105.167 151.5,104.5 Z"/></g>
<g><path style="opacity:0.004" fill="#000000" d="M 532.5,105.5 C 532.897,104.475 533.563,104.308 534.5,105C 533.906,105.464 533.239,105.631 532.5,105.5 Z"/></g>
<g><path style="opacity:0.008" fill="#5e5c1f" d="M 535.5,105.5 C 536.601,104.402 537.934,104.235 539.5,105C 538.207,105.49 536.873,105.657 535.5,105.5 Z"/></g>
<g><path style="opacity:0.008" fill="#7e7f7e" d="M 143.5,105.5 C 142.833,106.167 142.833,106.167 143.5,105.5 Z"/></g>
<g><path style="opacity:0.004" fill="#000000" d="M 134.5,106.5 C 135.833,107.167 135.833,107.167 134.5,106.5 Z"/></g>
<g><path style="opacity:0.008" fill="#7e7f7e" d="M 136.5,106.5 C 137.833,107.167 137.833,107.167 136.5,106.5 Z"/></g>
<g><path style="opacity:0.004" fill="#2b2b2b" d="M 551.5,107.5 C 551.897,106.475 552.563,106.308 553.5,107C 552.906,107.464 552.239,107.631 551.5,107.5 Z"/></g>
<g><path style="opacity:0.008" fill="#7e7f7e" d="M 128.5,107.5 C 129.833,108.167 129.833,108.167 128.5,107.5 Z"/></g>
<g><path style="opacity:0.004" fill="#000000" d="M 560.5,107.5 C 561.833,108.167 561.833,108.167 560.5,107.5 Z"/></g>
<g><path style="opacity:0.024" fill="#545529" d="M 570.5,108.5 C 571.833,109.167 571.833,109.167 570.5,108.5 Z"/></g>
<g><path style="opacity:0.004" fill="#000000" d="M 601.5,109.5 C 602.833,110.167 602.833,110.167 601.5,109.5 Z"/></g>
<g><path style="opacity:0.008" fill="#535353" d="M 616.5,110.5 C 616.897,109.475 617.563,109.308 618.5,110C 617.906,110.464 617.239,110.631 616.5,110.5 Z"/></g>
<g><path style="opacity:0.89" fill="#434240" d="M 138.5,108.5 C 130.079,110.411 121.412,111.411 112.5,111.5C 120.967,109.984 129.633,108.984 138.5,108.5 Z"/></g>
<g><path style="opacity:0.247" fill="#5e5b57" d="M 106.5,111.5 C 91.8333,112.833 77.1667,112.833 62.5,111.5C 77.3098,111.109 91.9765,111.109 106.5,111.5 Z"/></g>
<g><path style="opacity:0.004" fill="#000000" d="M 50.5,122.5 C 51.8333,123.167 51.8333,123.167 50.5,122.5 Z"/></g>
<g><path style="opacity:0.997" fill="#050505" d="M 343.5,129.5 C 343.833,130.5 344.5,131.167 345.5,131.5C 355.888,141.554 366.888,150.888 378.5,159.5C 384.901,166.2 391.901,172.2 399.5,177.5C 402.52,180.516 405.854,183.183 409.5,185.5C 413.091,189.299 417.091,192.633 421.5,195.5C 424.607,199.215 428.273,202.215 432.5,204.5C 434.549,207.55 437.216,209.883 440.5,211.5C 442.234,214.2 444.568,216.2 447.5,217.5C 451.847,221.845 456.514,225.845 461.5,229.5C 472.518,239.181 483.851,248.514 495.5,257.5C 495.833,258.5 496.5,259.167 497.5,259.5C 499.607,261.727 501.94,263.727 504.5,265.5C 508.515,269.513 512.848,273.179 517.5,276.5C 522.169,279.854 526.503,283.687 530.5,288C 529.201,290.77 527.535,293.27 525.5,295.5C 519.881,301.785 513.881,307.785 507.5,313.5C 502.541,310.432 498.041,306.765 494,302.5C 493.667,312.5 493.333,322.5 493,332.5C 492.302,333.691 491.469,334.691 490.5,335.5C 480.473,344.86 470.806,354.527 461.5,364.5C 460.425,365.562 459.425,365.562 458.5,364.5C 458.543,362.102 458.543,359.769 458.5,357.5C 459.815,356.105 459.481,355.105 457.5,354.5C 459.931,353.259 459.931,352.092 457.5,351C 458.428,350.612 459.095,349.945 459.5,349C 458.956,346.6 458.289,344.267 457.5,342C 458.167,341.333 458.833,340.667 459.5,340C 459.207,336.263 459.041,332.43 459,328.5C 458.626,327.584 458.126,326.75 457.5,326C 458.274,322.228 458.94,318.395 459.5,314.5C 457.638,313.052 456.972,311.385 457.5,309.5C 458.025,308.808 458.692,308.308 459.5,308C 458.474,305.812 458.474,303.312 459.5,300.5C 458.533,298.238 457.866,295.905 457.5,293.5C 458.686,292.295 458.686,290.961 457.5,289.5C 458.404,288.791 458.737,287.791 458.5,286.5C 459.833,286.167 459.833,285.833 458.5,285.5C 458.5,285.167 458.5,284.833 458.5,284.5C 458.353,282.282 458.02,279.949 457.5,277.5C 458.598,276.399 458.765,275.066 458,273.5C 452.627,268.623 447.127,263.956 441.5,259.5C 440.415,257.413 438.749,256.08 436.5,255.5C 436.167,254.5 435.5,253.833 434.5,253.5C 434.167,252.5 433.5,251.833 432.5,251.5C 430.766,248.8 428.432,246.8 425.5,245.5C 423.396,243.901 421.396,242.068 419.5,240C 417.721,240.979 416.055,240.646 414.5,239C 415.451,238.282 415.617,237.449 415,236.5C 407.376,230.278 399.876,223.944 392.5,217.5C 391.455,216.122 390.122,215.122 388.5,214.5C 388.5,213.833 388.167,213.5 387.5,213.5C 385.486,211.155 383.153,209.155 380.5,207.5C 380.5,206.833 380.167,206.5 379.5,206.5C 379.167,205.5 378.5,204.833 377.5,204.5C 375.54,202.844 373.54,201.177 371.5,199.5C 370.791,198.596 369.791,198.263 368.5,198.5C 367.189,195.189 364.855,192.855 361.5,191.5C 361.167,190.167 360.833,190.167 360.5,191.5C 355.231,185.399 349.397,179.733 343,174.5C 339.514,177.16 336.347,180.16 333.5,183.5C 305.847,206.488 278.514,229.821 251.5,253.5C 247.183,256.486 243.183,259.82 239.5,263.5C 236.94,265.273 234.607,267.273 232.5,269.5C 231.5,269.833 230.833,270.5 230.5,271.5C 228.938,271.733 227.605,272.4 226.5,273.5C 225.167,300.992 224.5,328.825 224.5,357C 224.5,385.002 224.833,412.835 225.5,440.5C 239.167,441.833 252.833,441.833 266.5,440.5C 268.089,439.379 269.756,439.546 271.5,441C 282.092,452.233 292.259,463.066 302,473.5C 302.688,474.332 302.521,474.998 301.5,475.5C 276.354,474.458 250.354,474.458 223.5,475.5C 221.167,474.167 218.833,474.167 216.5,475.5C 216.167,475.5 215.833,475.5 215.5,475.5C 208.352,474.508 201.019,474.175 193.5,474.5C 193.833,416.829 193.5,359.163 192.5,301.5C 191.893,301.624 191.56,301.957 191.5,302.5C 191.167,303.167 190.833,303.833 190.5,304.5C 187.418,306.075 184.751,308.242 182.5,311C 182.833,311.333 183.167,311.667 183.5,312C 181.899,312.273 180.399,312.773 179,313.5C 176.267,310.938 173.767,308.271 171.5,305.5C 170.746,303.495 169.579,302.828 168,303.5C 166.513,302.747 166.346,301.914 167.5,301C 162.869,296.881 158.869,292.381 155.5,287.5C 156.833,286.833 157.833,285.833 158.5,284.5C 159.167,284.5 159.5,284.167 159.5,283.5C 163.127,281.206 166.461,278.54 169.5,275.5C 172.582,273.628 175.249,271.295 177.5,268.5C 179.23,267.974 180.564,266.974 181.5,265.5C 190.819,258.179 199.819,250.512 208.5,242.5C 211.06,240.727 213.393,238.727 215.5,236.5C 219.12,234.547 222.12,231.881 224.5,228.5C 226.23,227.974 227.564,226.974 228.5,225.5C 231.784,223.883 234.451,221.55 236.5,218.5C 238.404,218.262 239.738,217.262 240.5,215.5C 243.432,214.2 245.766,212.2 247.5,209.5C 250.06,207.727 252.393,205.727 254.5,203.5C 255.167,203.5 255.5,203.167 255.5,202.5C 256.167,202.5 256.5,202.167 256.5,201.5C 259.117,200.214 261.45,198.547 263.5,196.5C 266.729,194.058 269.729,191.392 272.5,188.5C 273.167,188.5 273.5,188.167 273.5,187.5C 277.482,184.848 281.149,181.848 284.5,178.5C 288.12,176.547 291.12,173.881 293.5,170.5C 294.833,170.167 294.833,169.833 293.5,169.5C 294.189,168.226 295.023,168.226 296,169.5C 298.729,166.601 301.562,163.934 304.5,161.5C 307.432,160.2 309.766,158.2 311.5,155.5C 317.909,150.966 323.909,145.966 329.5,140.5C 334.167,136.833 338.833,133.167 343.5,129.5 Z M 432.5,251.5 C 433.5,251.833 434.167,252.5 434.5,253.5C 433.833,253.5 433.167,253.5 432.5,253.5C 432.5,252.833 432.5,252.167 432.5,251.5 Z M 191.5,302.5 C 192.598,303.601 192.765,304.934 192,306.5C 191.722,305.584 191.222,304.918 190.5,304.5C 190.833,303.833 191.167,303.167 191.5,302.5 Z"/></g>
<g><path style="opacity:0.004" fill="#000000" d="M 634.5,137.5 C 635.833,138.167 635.833,138.167 634.5,137.5 Z"/></g>
<g><path style="opacity:0.035" fill="#4a4947" d="M 176.5,137.5 C 175.167,138.167 173.833,138.833 172.5,139.5C 169.167,139.833 165.833,140.167 162.5,140.5C 166.862,138.656 171.529,137.656 176.5,137.5 Z"/></g>
<g><path style="opacity:0.251" fill="#52514b" d="M 114.5,146.5 C 108.099,147.184 101.599,147.85 95,148.5C 94.6012,148.272 94.4346,147.938 94.5,147.5C 100.979,146.509 107.646,146.176 114.5,146.5 Z"/></g>
<g><path style="opacity:0.004" fill="#000000" d="M 46.5,147.5 C 47.8333,148.167 47.8333,148.167 46.5,147.5 Z"/></g>
<g><path style="opacity:0.004" fill="#000000" d="M 48.5,147.5 C 49.525,147.897 49.6917,148.563 49,149.5C 48.5357,148.906 48.369,148.239 48.5,147.5 Z"/></g>
<g><path style="opacity:0.129" fill="#575751" d="M 586.5,147.5 C 590.833,147.5 595.167,147.5 599.5,147.5C 599.784,149.415 599.451,151.081 598.5,152.5C 598.5,151.167 598.5,149.833 598.5,148.5C 594.298,148.817 590.298,148.483 586.5,147.5 Z"/></g>
<g><path style="opacity:0.482" fill="#565552" d="M 93.5,147.5 C 91.3926,148.468 89.0593,148.802 86.5,148.5C 86.81,151.713 86.4767,154.713 85.5,157.5C 85.5,154.167 85.5,150.833 85.5,147.5C 88.1667,147.5 90.8333,147.5 93.5,147.5 Z"/></g>
<g><path style="opacity:0.004" fill="#000000" d="M 48.5,155.5 C 49.8333,156.167 49.8333,156.167 48.5,155.5 Z"/></g>
<g><path style="opacity:0.624" fill="#42413d" d="M 632.5,131.5 C 633.822,142.642 634.489,153.976 634.5,165.5C 633.103,154.362 632.436,143.028 632.5,131.5 Z"/></g>
<g><path style="opacity:0.008" fill="#7e7f00" d="M 635.5,159.5 C 636.833,160.167 636.833,160.167 635.5,159.5 Z"/></g>
<g><path style="opacity:0.004" fill="#000000" d="M 47.5,168.5 C 48.8333,169.167 48.8333,169.167 47.5,168.5 Z"/></g>
<g><path style="opacity:0.004" fill="#000000" d="M 47.5,169.5 C 47.5,169.833 47.5,170.167 47.5,170.5C 46.8299,170.019 46.8299,169.685 47.5,169.5 Z"/></g>
<g><path style="opacity:0.004" fill="#000000" d="M 47.5,170.5 C 48.5983,171.601 48.765,172.934 48,174.5C 47.51,173.207 47.3433,171.873 47.5,170.5 Z"/></g>
<g><path style="opacity:0.004" fill="#4e4c1c" d="M 47.5,176.5 C 48.6129,177.946 48.7796,179.613 48,181.5C 47.5065,179.866 47.3398,178.199 47.5,176.5 Z"/></g>
<g><path style="opacity:0.004" fill="#000000" d="M 636.5,187.5 C 637.833,188.167 637.833,188.167 636.5,187.5 Z"/></g>
<g><path style="opacity:0.008" fill="#7e7f00" d="M 636.5,191.5 C 637.833,192.167 637.833,192.167 636.5,191.5 Z"/></g>
<g><path style="opacity:0.004" fill="#000000" d="M 636.5,195.5 C 637.833,196.167 637.833,196.167 636.5,195.5 Z"/></g>
<g><path style="opacity:0.846" fill="#393835" d="M 84.5,181.5 C 84.5033,188.672 84.67,196.006 85,203.5C 85.6543,202.304 86.1543,202.304 86.5,203.5C 83.9194,205.674 83.9194,207.84 86.5,210C 85.5149,219.417 85.1816,228.917 85.5,238.5C 83.8106,219.512 83.4772,200.512 84.5,181.5 Z"/></g>
<g><path style="opacity:0.004" fill="#141414" d="M 256.5,201.5 C 255.833,201.5 255.5,201.833 255.5,202.5C 255.167,202.5 254.833,202.5 254.5,202.5C 254.711,200.576 255.377,200.243 256.5,201.5 Z"/></g>
<g><path style="opacity:0.004" fill="#000000" d="M 636.5,200.5 C 637.833,201.167 637.833,201.167 636.5,200.5 Z"/></g>
<g><path style="opacity:0.008" fill="#7e7f00" d="M 636.5,203.5 C 637.833,204.167 637.833,204.167 636.5,203.5 Z"/></g>
<g><path style="opacity:0.02" fill="#514d37" d="M 47.5,183.5 C 48.6593,194.659 48.8259,205.992 48,217.5C 47.8173,209.255 47.3173,201.088 46.5,193C 47.4505,189.943 47.7839,186.777 47.5,183.5 Z"/></g>
<g><path style="opacity:0.007" fill="#000000" d="M 379.5,206.5 C 380.167,206.5 380.5,206.833 380.5,207.5C 380.44,208.043 380.107,208.376 379.5,208.5C 378.227,207.743 378.227,207.077 379.5,206.5 Z"/></g>
<g><path style="opacity:0.008" fill="#7e7f00" d="M 636.5,207.5 C 637.833,208.167 637.833,208.167 636.5,207.5 Z"/></g>
<g><path style="opacity:0.004" fill="#000000" d="M 636.5,216.5 C 637.833,217.167 637.833,217.167 636.5,216.5 Z"/></g>
<g><path style="opacity:0.004" fill="#000000" d="M 636.5,218.5 C 637.525,218.897 637.692,219.563 637,220.5C 636.536,219.906 636.369,219.239 636.5,218.5 Z"/></g>
<g><path style="opacity:0.004" fill="#1e1c09" d="M 47.5,218.5 C 48.5983,219.601 48.765,220.934 48,222.5C 47.51,221.207 47.3433,219.873 47.5,218.5 Z"/></g>
<g><path style="opacity:0.005" fill="#000000" d="M 231.5,219.5 C 234.001,219.511 234.168,220.178 232,221.5C 231.536,220.906 231.369,220.239 231.5,219.5 Z"/></g>
<g><path style="opacity:0.004" fill="#000000" d="M 636.5,223.5 C 637.833,224.167 637.833,224.167 636.5,223.5 Z"/></g>
<g><path style="opacity:0.004" fill="#000000" d="M 48.5,231.5 C 49.8333,232.167 49.8333,232.167 48.5,231.5 Z"/></g>
<g><path style="opacity:0.004" fill="#000000" d="M 48.5,235.5 C 49.525,235.897 49.6917,236.563 49,237.5C 48.5357,236.906 48.369,236.239 48.5,235.5 Z"/></g>
<g><path style="opacity:0.004" fill="#1e1c09" d="M 48.5,238.5 C 49.5983,239.601 49.765,240.934 49,242.5C 48.51,241.207 48.3433,239.873 48.5,238.5 Z"/></g>
<g><path style="opacity:0.267" fill="#605f57" d="M 50.5,232.5 C 51.4872,237.305 51.8205,242.305 51.5,247.5C 50.7611,247.631 50.0944,247.464 49.5,247C 50.4692,242.263 50.8025,237.43 50.5,232.5 Z"/></g>
<g><path style="opacity:0.004" fill="#000000" d="M 635.5,239.5 C 636.833,240.167 636.833,240.167 635.5,239.5 Z"/></g>
<g><path style="opacity:0.004" fill="#000000" d="M 208.5,242.5 C 205.999,242.489 205.832,241.822 208,240.5C 208.464,241.094 208.631,241.761 208.5,242.5 Z"/></g>
<g><path style="opacity:0.004" fill="#000000" d="M 48.5,243.5 C 49.8333,244.167 49.8333,244.167 48.5,243.5 Z"/></g>
<g><path style="opacity:0.007" fill="#000000" d="M 432.5,251.5 C 432.5,252.167 432.5,252.833 432.5,253.5C 430.067,252.452 430.067,251.786 432.5,251.5 Z"/></g>
<g><path style="opacity:0.008" fill="#54530d" d="M 634.5,254.5 C 635.525,254.897 635.692,255.563 635,256.5C 634.536,255.906 634.369,255.239 634.5,254.5 Z"/></g>
<g><path style="opacity:0.004" fill="#000000" d="M 633.5,261.5 C 634.833,262.167 634.833,262.167 633.5,261.5 Z"/></g>
<g><path style="opacity:0.004" fill="#000000" d="M 50.5,262.5 C 51.525,262.897 51.6917,263.563 51,264.5C 50.5357,263.906 50.369,263.239 50.5,262.5 Z"/></g>
<g><path style="opacity:0.005" fill="#151515" d="M 175.5,264.5 C 178.137,266.154 177.803,266.654 174.5,266C 175.056,265.617 175.389,265.117 175.5,264.5 Z"/></g>
<g><path style="opacity:0.991" fill="#060606" d="M 305.5,305.5 C 305.5,293.833 305.5,282.167 305.5,270.5C 306.791,270.737 307.791,270.404 308.5,269.5C 308.833,269.5 309.167,269.5 309.5,269.5C 309.833,270.833 310.167,270.833 310.5,269.5C 314.437,269.207 318.27,269.54 322,270.5C 322.333,269.833 322.667,269.167 323,268.5C 328.148,269.442 333.315,270.109 338.5,270.5C 337.634,282.13 337.468,293.796 338,305.5C 327.667,305.5 317.333,305.5 307,305.5C 306.851,308.279 306.017,308.779 304.5,307C 305.056,306.617 305.389,306.117 305.5,305.5 Z"/></g>
<g><path style="opacity:0.996" fill="#070706" d="M 347.5,305.5 C 347.5,293.833 347.5,282.167 347.5,270.5C 350.148,270.414 352.815,270.08 355.5,269.5C 359.65,270.086 363.817,270.419 368,270.5C 368.667,267.833 369.333,267.833 370,270.5C 373.563,269.903 376.896,269.903 380,270.5C 380.667,282.167 380.667,293.833 380,305.5C 369.009,305.524 358.176,305.524 347.5,305.5 Z"/></g>
<g><path style="opacity:0.204" fill="#5b5a53" d="M 308.5,269.5 C 307.791,270.404 306.791,270.737 305.5,270.5C 305.5,282.167 305.5,293.833 305.5,305.5C 304.694,304.132 303.694,302.799 302.5,301.5C 302.846,300.304 303.346,300.304 304,301.5C 304.5,290.839 304.667,280.172 304.5,269.5C 305.833,269.5 307.167,269.5 308.5,269.5 Z"/></g>
<g><path style="opacity:0.91" fill="#3f3e3d" d="M 53.5,272.5 C 55.1173,277.916 55.784,283.583 55.5,289.5C 54.2627,284.04 53.596,278.373 53.5,272.5 Z"/></g>
<g><path style="opacity:0.278" fill="#40403d" d="M 88.5,277.5 C 89.2979,280.171 89.9646,283.004 90.5,286C 90.9054,286.945 91.572,287.612 92.5,288C 91.0267,288.71 90.3601,289.876 90.5,291.5C 88.8958,287.1 88.2291,282.434 88.5,277.5 Z"/></g>
<g><path style="opacity:0.4" fill="#585752" d="M 347.5,270.5 C 347.5,282.167 347.5,293.833 347.5,305.5C 346.733,304.828 346.066,303.995 345.5,303C 346.156,292.069 346.823,281.235 347.5,270.5 Z"/></g>
<g><path style="opacity:0.008" fill="#454333" d="M 629.5,296.5 C 630.613,297.946 630.78,299.613 630,301.5C 629.506,299.866 629.34,298.199 629.5,296.5 Z"/></g>
<g><path style="opacity:0.004" fill="#000000" d="M 629.5,303.5 C 630.833,304.167 630.833,304.167 629.5,303.5 Z"/></g>
<g><path style="opacity:0.004" fill="#000000" d="M 55.5,304.5 C 56.8333,305.167 56.8333,305.167 55.5,304.5 Z"/></g>
<g><path style="opacity:0.004" fill="#000000" d="M 56.5,307.5 C 55.8333,306.167 55.8333,306.167 56.5,307.5 Z"/></g>
<g><path style="opacity:0.012" fill="#545554" d="M 56.5,311.5 C 57.8333,312.167 57.8333,312.167 56.5,311.5 Z"/></g>
<g><path style="opacity:0.004" fill="#000000" d="M 373.5,313.5 C 371.932,314.473 370.265,314.64 368.5,314C 370.244,312.546 371.911,312.379 373.5,313.5 Z"/></g>
<g><path style="opacity:0.005" fill="#161616" d="M 226.5,313.5 C 227.216,315.556 227.883,317.723 228.5,320C 228.167,320.167 227.833,320.333 227.5,320.5C 226.526,318.257 226.192,315.924 226.5,313.5 Z"/></g>
<g><path style="opacity:0.004" fill="#1b1b1b" d="M 312.5,314.5 C 311.325,314.719 310.325,314.386 309.5,313.5C 310.86,312.335 311.86,312.668 312.5,314.5 Z"/></g>
<g><path style="opacity:0.992" fill="#040403" d="M 336.5,313.5 C 336.833,313.5 337.167,313.5 337.5,313.5C 338.514,323.143 338.68,333.143 338,343.5C 338.5,344.667 339.333,345.5 340.5,346C 339.5,346.333 338.5,346.667 337.5,347C 338.774,347.977 338.774,348.811 337.5,349.5C 326.833,349.5 316.167,349.5 305.5,349.5C 305.5,338.167 305.5,326.833 305.5,315.5C 308.059,315.802 310.393,315.468 312.5,314.5C 319.231,315.294 325.898,315.628 332.5,315.5C 334.333,315.415 335.666,314.748 336.5,313.5 Z"/></g>
<g><path style="opacity:0.995" fill="#030303" d="M 364.5,313.5 C 365.386,312.224 366.386,312.224 367.5,313.5C 367.291,314.086 366.957,314.586 366.5,315C 369.924,315.747 373.257,315.58 376.5,314.5C 377.566,315.692 378.399,315.359 379,313.5C 379.464,314.094 379.631,314.761 379.5,315.5C 379.5,326.833 379.5,338.167 379.5,349.5C 368.833,349.5 358.167,349.5 347.5,349.5C 347.5,338.167 347.5,326.833 347.5,315.5C 347.721,312.903 348.221,312.903 349,315.5C 349.278,314.584 349.778,313.918 350.5,313.5C 352.15,314.048 353.817,314.381 355.5,314.5C 355.833,315.833 356.167,315.833 356.5,314.5C 357.735,314.279 358.735,313.612 359.5,312.5C 360.965,314.424 362.632,314.757 364.5,313.5 Z"/></g>
<g><path style="opacity:0.004" fill="#000000" d="M 57.5,317.5 C 58.8333,318.167 58.8333,318.167 57.5,317.5 Z"/></g>
<g><path style="opacity:0.004" fill="#2c2b0d" d="M 626.5,318.5 C 627.525,318.897 627.692,319.563 627,320.5C 626.536,319.906 626.369,319.239 626.5,318.5 Z"/></g>
<g><path style="opacity:0.39" fill="#4f4d48" d="M 226.5,273.5 C 225.289,292.744 225.289,312.744 226.5,333.5C 227.354,334.522 228.354,335.355 229.5,336C 227.892,336.658 226.725,336.158 226,334.5C 225.5,369.832 225.333,405.165 225.5,440.5C 224.833,412.835 224.5,385.002 224.5,357C 224.5,328.825 225.167,300.992 226.5,273.5 Z"/></g>
<g><path style="opacity:0.004" fill="#000000" d="M 58.5,326.5 C 59.8333,327.167 59.8333,327.167 58.5,326.5 Z"/></g>
<g><path style="opacity:0.998" fill="#060606" d="M 549.5,347.5 C 553.676,351.843 557.676,356.343 561.5,361C 557.324,366.007 552.991,370.841 548.5,375.5C 542.795,380.204 537.795,385.537 533.5,391.5C 530.5,393.833 527.833,396.5 525.5,399.5C 524.833,399.5 524.5,399.833 524.5,400.5C 521.833,402.5 519.5,404.833 517.5,407.5C 514.5,409.833 511.833,412.5 509.5,415.5C 500.528,424.807 491.528,434.14 482.5,443.5C 478.167,447.167 474.167,451.167 470.5,455.5C 456.202,469.997 441.868,484.664 427.5,499.5C 417.167,509.167 407.167,519.167 397.5,529.5C 395.871,530.625 394.371,531.959 393,533.5C 385.325,525.658 377.492,517.992 369.5,510.5C 369.5,509.833 369.167,509.5 368.5,509.5C 366.5,506.833 364.167,504.5 361.5,502.5C 361.5,501.833 361.167,501.5 360.5,501.5C 358.5,498.833 356.167,496.5 353.5,494.5C 353.5,493.833 353.167,493.5 352.5,493.5C 350.167,490.5 347.5,487.833 344.5,485.5C 339.5,479.833 334.167,474.5 328.5,469.5C 327.182,466.349 325.015,464.016 322,462.5C 320.375,463.412 319.541,462.745 319.5,460.5C 320.833,460.167 320.833,459.833 319.5,459.5C 318.5,457.833 317.167,456.5 315.5,455.5C 314.699,453.492 313.366,452.992 311.5,454C 311.869,451.123 310.535,448.956 307.5,447.5C 307.5,446.833 307.167,446.5 306.5,446.5C 306.5,445.833 306.167,445.5 305.5,445.5C 305.167,444.5 304.5,443.833 303.5,443.5C 302.167,441.5 300.5,439.833 298.5,438.5C 298.5,437.833 298.167,437.5 297.5,437.5C 297.5,436.833 297.167,436.5 296.5,436.5C 295.167,434.5 293.5,432.833 291.5,431.5C 290.174,429.805 290.507,428.472 292.5,427.5C 293.5,427.167 294.167,426.5 294.5,425.5C 295.833,424.833 296.833,423.833 297.5,422.5C 300.189,421.811 301.856,420.144 302.5,417.5C 308.776,412.893 314.443,407.559 319.5,401.5C 320.423,400.697 321.423,400.53 322.5,401C 325.703,404.371 329.036,407.538 332.5,410.5C 332.5,411.167 332.833,411.5 333.5,411.5C 335.5,414.167 337.833,416.5 340.5,418.5C 340.5,419.167 340.833,419.5 341.5,419.5C 349.167,427.833 357.167,435.833 365.5,443.5C 370.5,449.167 375.833,454.5 381.5,459.5C 382.167,460.833 383.167,461.833 384.5,462.5C 387.462,465.964 390.629,469.297 394,472.5C 394.717,471.956 395.217,471.289 395.5,470.5C 402.5,464.167 409.167,457.5 415.5,450.5C 418.833,447.833 421.833,444.833 424.5,441.5C 427.167,439.5 429.5,437.167 431.5,434.5C 432.167,434.5 432.5,434.167 432.5,433.5C 435.167,431.5 437.5,429.167 439.5,426.5C 442.5,424.167 445.167,421.5 447.5,418.5C 448.167,418.5 448.5,418.167 448.5,417.5C 451.5,415.167 454.167,412.5 456.5,409.5C 459.452,407.215 462.118,404.548 464.5,401.5C 468.07,399.719 470.737,397.052 472.5,393.5C 475.167,391.5 477.5,389.167 479.5,386.5C 480.167,386.5 480.5,386.167 480.5,385.5C 483.452,383.215 486.118,380.548 488.5,377.5C 501.86,364.806 514.86,351.806 527.5,338.5C 529.649,336.954 531.816,335.288 534,333.5C 539.012,338.345 544.178,343.012 549.5,347.5 Z"/></g>
<g><path style="opacity:0.012" fill="#2c2c2c" d="M 583.5,336.5 C 584.773,337.077 584.773,337.743 583.5,338.5C 582.537,338.03 582.537,337.363 583.5,336.5 Z"/></g>
<g><path style="opacity:0.004" fill="#33211d" d="M 344.5,342.5 C 345.613,343.946 345.78,345.613 345,347.5C 344.626,346.584 344.126,345.75 343.5,345C 344.252,344.329 344.586,343.496 344.5,342.5 Z"/></g>
<g><path style="opacity:0.173" fill="#5b5a56" d="M 347.5,315.5 C 347.5,326.833 347.5,338.167 347.5,349.5C 358.167,349.5 368.833,349.5 379.5,349.5C 379.5,338.167 379.5,326.833 379.5,315.5C 380.33,324.991 380.83,334.658 381,344.5C 382.914,345.676 382.748,346.676 380.5,347.5C 381.025,348.192 381.692,348.692 382.5,349C 373.424,350.111 364.424,350.944 355.5,351.5C 353.059,350.244 350.726,350.244 348.5,351.5C 347.883,351.611 347.383,351.944 347,352.5C 346.173,339.993 346.34,327.66 347.5,315.5 Z"/></g>
<g><path style="opacity:0.012" fill="#545350" d="M 305.5,315.5 C 305.5,326.833 305.5,338.167 305.5,349.5C 316.167,349.5 326.833,349.5 337.5,349.5C 335.427,350.138 333.427,351.138 331.5,352.5C 330.304,352.154 330.304,351.654 331.5,351C 326.167,350.333 320.833,350.333 315.5,351C 316.696,351.654 316.696,352.154 315.5,352.5C 313.464,350.655 311.13,350.155 308.5,351C 312.414,351.897 312.248,352.397 308,352.5C 305.824,352.123 303.991,351.457 302.5,350.5C 304.087,349.011 304.753,346.511 304.5,343C 304.333,341.167 304.167,339.333 304,337.5C 303.667,338.833 303.333,340.167 303,341.5C 302.833,340.667 302.667,339.833 302.5,339C 304.01,331.104 305.01,323.271 305.5,315.5 Z"/></g>
<g><path style="opacity:0.004" fill="#000000" d="M 619.5,353.5 C 620.833,354.167 620.833,354.167 619.5,353.5 Z"/></g>
<g><path style="opacity:0.004" fill="#000000" d="M 65.5,356.5 C 66.8333,357.167 66.8333,357.167 65.5,356.5 Z"/></g>
<g><path style="opacity:0.004" fill="#222222" d="M 457.5,366.5 C 460.001,366.511 460.168,367.178 458,368.5C 457.536,367.906 457.369,367.239 457.5,366.5 Z"/></g>
<g><path style="opacity:0.004" fill="#191919" d="M 71.5,374.5 C 71.6495,375.552 71.4828,376.552 71,377.5C 70.2599,376.251 70.4265,375.251 71.5,374.5 Z"/></g>
<g><path style="opacity:0.004" fill="#000000" d="M 613.5,377.5 C 614.833,378.167 614.833,378.167 613.5,377.5 Z"/></g>
<g><path style="opacity:0.008" fill="#7e7f00" d="M 71.5,379.5 C 72.8333,380.167 72.8333,380.167 71.5,379.5 Z"/></g>
<g><path style="opacity:0.012" fill="#393939" d="M 73.5,382.5 C 73.631,383.239 73.4643,383.906 73,384.5C 72.3083,383.563 72.475,382.897 73.5,382.5 Z"/></g>
<g><path style="opacity:0.004" fill="#000000" d="M 611.5,383.5 C 612.833,384.167 612.833,384.167 611.5,383.5 Z"/></g>
<g><path style="opacity:0.008" fill="#550d01" d="M 70.5,384.5 C 71.525,384.897 71.6917,385.563 71,386.5C 70.5357,385.906 70.369,385.239 70.5,384.5 Z"/></g>
<g><path style="opacity:0.004" fill="#000000" d="M 74.5,385.5 C 73.8333,386.167 73.8333,386.167 74.5,385.5 Z"/></g>
<g><path style="opacity:0.008" fill="#000000" d="M 609.5,389.5 C 610.833,390.167 610.833,390.167 609.5,389.5 Z"/></g>
<g><path style="opacity:0.012" fill="#545554" d="M 74.5,390.5 C 75.8333,391.167 75.8333,391.167 74.5,390.5 Z"/></g>
<g><path style="opacity:0.008" fill="#7e0000" d="M 78.5,402.5 C 79.8333,403.167 79.8333,403.167 78.5,402.5 Z"/></g>
<g><path style="opacity:0.004" fill="#1f1f1f" d="M 605.5,401.5 C 606.525,401.897 606.692,402.563 606,403.5C 605.536,402.906 605.369,402.239 605.5,401.5 Z"/></g>
<g><path style="opacity:0.445" fill="#434139" d="M 191.5,302.5 C 191.56,301.957 191.893,301.624 192.5,301.5C 193.5,359.163 193.833,416.829 193.5,474.5C 201.019,474.175 208.352,474.508 215.5,475.5C 207.826,475.666 200.159,475.5 192.5,475C 191.692,474.692 191.025,474.192 190.5,473.5C 192.512,469.408 193.012,465.075 192,460.5C 191.113,465.727 190.613,465.56 190.5,460C 190.691,457.95 191.358,456.117 192.5,454.5C 192.154,453.304 191.654,453.304 191,454.5C 190.333,446.833 190.333,439.167 191,431.5C 191.333,433.167 191.667,434.833 192,436.5C 192.667,433.833 192.667,431.167 192,428.5C 191.667,429.167 191.333,429.833 191,430.5C 190.186,425.98 190.353,421.646 191.5,417.5C 191.5,417.167 191.5,416.833 191.5,416.5C 190.167,411.5 190.167,406.5 191.5,401.5C 191.5,401.167 191.5,400.833 191.5,400.5C 190.38,383.924 190.38,365.59 191.5,345.5C 191.5,345.167 191.5,344.833 191.5,344.5C 190.824,332.098 190.158,319.598 189.5,307C 190.252,306.329 190.586,305.496 190.5,304.5C 191.222,304.918 191.722,305.584 192,306.5C 192.765,304.934 192.598,303.601 191.5,302.5 Z"/></g>
<g><path style="opacity:0.006" fill="#000000" d="M 80.5,404.5 C 80.631,405.239 80.4643,405.906 80,406.5C 79.3083,405.563 79.475,404.897 80.5,404.5 Z"/></g>
<g><path style="opacity:0.004" fill="#000000" d="M 80.5,408.5 C 81.8333,409.167 81.8333,409.167 80.5,408.5 Z"/></g>
<g><path style="opacity:0.007" fill="#000000" d="M 332.5,410.5 C 332.56,409.957 332.893,409.624 333.5,409.5C 334.773,410.257 334.773,410.923 333.5,411.5C 332.833,411.5 332.5,411.167 332.5,410.5 Z"/></g>
<g><path style="opacity:0.016" fill="#3e3f3e" d="M 602.5,411.5 C 603.833,412.167 603.833,412.167 602.5,411.5 Z"/></g>
<g><path style="opacity:0.008" fill="#000000" d="M 87.5,427.5 C 88.8333,428.167 88.8333,428.167 87.5,427.5 Z"/></g>
<g><path style="opacity:0.005" fill="#000000" d="M 550.5,433.5 C 553.001,433.511 553.168,434.178 551,435.5C 550.536,434.906 550.369,434.239 550.5,433.5 Z"/></g>
<g><path style="opacity:0.007" fill="#151515" d="M 296.5,436.5 C 297.167,436.5 297.5,436.833 297.5,437.5C 297.5,437.833 297.5,438.167 297.5,438.5C 294.147,438.655 293.814,437.988 296.5,436.5 Z"/></g>
<g><path style="opacity:0.768" fill="#3f3f3d" d="M 266.5,440.5 C 252.833,441.833 239.167,441.833 225.5,440.5C 226.268,439.737 226.768,438.737 227,437.5C 233.804,439.151 240.804,440.151 248,440.5C 250.466,439.212 252.966,439.212 255.5,440.5C 256.748,439.96 257.915,439.293 259,438.5C 261.301,439.867 263.801,440.534 266.5,440.5 Z"/></g>
<g><path style="opacity:0.008" fill="#7e0000" d="M 95.5,446.5 C 96.8333,447.167 96.8333,447.167 95.5,446.5 Z"/></g>
<g><path style="opacity:0.007" fill="#0d0d0d" d="M 305.5,445.5 C 306.167,445.5 306.5,445.833 306.5,446.5C 307.167,446.5 307.5,446.833 307.5,447.5C 306.038,448.471 304.705,448.138 303.5,446.5C 304.167,446.167 304.833,445.833 305.5,445.5 Z"/></g>
<g><path style="opacity:0.004" fill="#000000" d="M 94.5,449.5 C 95.8333,450.167 95.8333,450.167 94.5,449.5 Z"/></g>
<g><path style="opacity:0.004" fill="#000000" d="M 98.5,449.5 C 97.8333,450.167 97.8333,450.167 98.5,449.5 Z"/></g>
<g><path style="opacity:0.008" fill="#000000" d="M 98.5,452.5 C 99.8333,453.167 99.8333,453.167 98.5,452.5 Z"/></g>
<g><path style="opacity:0.004" fill="#000000" d="M 585.5,453.5 C 586.833,454.167 586.833,454.167 585.5,453.5 Z"/></g>
<g><path style="opacity:0.004" fill="#000000" d="M 100.5,455.5 C 99.8333,454.167 99.8333,454.167 100.5,455.5 Z"/></g>
<g><path style="opacity:0.004" fill="#000000" d="M 100.5,455.5 C 100.833,455.5 101.167,455.5 101.5,455.5C 101.315,456.17 100.981,456.17 100.5,455.5 Z"/></g>
<g><path style="opacity:0.008" fill="#7e7f00" d="M 105.5,470.5 C 106.833,471.167 106.833,471.167 105.5,470.5 Z"/></g>
<g><path style="opacity:0.008" fill="#7e0000" d="M 109.5,471.5 C 108.833,472.167 108.833,472.167 109.5,471.5 Z"/></g>
<g><path style="opacity:0.012" fill="#595952" d="M 216.5,475.5 C 218.833,474.167 221.167,474.167 223.5,475.5C 221.331,476.082 218.998,476.082 216.5,475.5 Z"/></g>
<g><path style="opacity:0.004" fill="#000000" d="M 112.5,477.5 C 111.833,478.167 111.833,478.167 112.5,477.5 Z"/></g>
<g><path style="opacity:0.008" fill="#000000" d="M 113.5,479.5 C 112.833,480.167 112.833,480.167 113.5,479.5 Z"/></g>
<g><path style="opacity:0.004" fill="#000000" d="M 114.5,483.5 C 115.833,484.167 115.833,484.167 114.5,483.5 Z"/></g>
<g><path style="opacity:0.012" fill="#545554" d="M 122.5,494.5 C 121.833,495.167 121.833,495.167 122.5,494.5 Z"/></g>
<g><path style="opacity:0.008" fill="#000000" d="M 557.5,503.5 C 558.833,504.167 558.833,504.167 557.5,503.5 Z"/></g>
<g><path style="opacity:0.005" fill="#000000" d="M 130.5,507.5 C 131.087,508.767 131.087,509.767 130.5,510.5C 129.224,509.386 129.224,508.386 130.5,507.5 Z"/></g>
<g><path style="opacity:0.008" fill="#000000" d="M 557.5,507.5 C 558.833,508.167 558.833,508.167 557.5,507.5 Z"/></g>
<g><path style="opacity:0.004" fill="#000000" d="M 557.5,508.5 C 556.833,509.167 556.833,509.167 557.5,508.5 Z"/></g>
<g><path style="opacity:0.008" fill="#000000" d="M 553.5,509.5 C 554.833,510.167 554.833,510.167 553.5,509.5 Z"/></g>
<g><path style="opacity:0.004" fill="#000000" d="M 131.5,511.5 C 132.833,512.167 132.833,512.167 131.5,511.5 Z"/></g>
<g><path style="opacity:0.004" fill="#000000" d="M 135.5,519.5 C 136.833,520.167 136.833,520.167 135.5,519.5 Z"/></g>
<g><path style="opacity:0.008" fill="#000000" d="M 144.5,527.5 C 143.833,528.167 143.833,528.167 144.5,527.5 Z"/></g>
<g><path style="opacity:0.006" fill="#0f0f0f" d="M 486.5,529.5 C 488.973,529.947 489.14,530.947 487,532.5C 486.517,531.552 486.351,530.552 486.5,529.5 Z"/></g>
<g><path style="opacity:0.004" fill="#000000" d="M 146.5,530.5 C 145.833,531.167 145.833,531.167 146.5,530.5 Z"/></g>
<g><path style="opacity:0.004" fill="#000000" d="M 145.5,531.5 C 145.631,532.239 145.464,532.906 145,533.5C 144.308,532.563 144.475,531.897 145.5,531.5 Z"/></g>
<g><path style="opacity:0.004" fill="#000000" d="M 147.5,534.5 C 148.833,535.167 148.833,535.167 147.5,534.5 Z"/></g>
<g><path style="opacity:0.012" fill="#545554" d="M 153.5,539.5 C 152.833,540.167 152.833,540.167 153.5,539.5 Z"/></g>
<g><path style="opacity:0.008" fill="#000000" d="M 155.5,542.5 C 154.833,543.167 154.833,543.167 155.5,542.5 Z"/></g>
<g><path style="opacity:0.004" fill="#000000" d="M 524.5,548.5 C 525.833,549.167 525.833,549.167 524.5,548.5 Z"/></g>
<g><path style="opacity:0.005" fill="#000000" d="M 159.5,550.5 C 160.773,551.077 160.773,551.743 159.5,552.5C 158.537,552.03 158.537,551.363 159.5,550.5 Z"/></g>
<g><path style="opacity:0.004" fill="#000000" d="M 163.5,551.5 C 162.833,552.167 162.833,552.167 163.5,551.5 Z"/></g>
<g><path style="opacity:0.005" fill="#000000" d="M 168.5,557.5 C 169.167,557.5 169.5,557.833 169.5,558.5C 168.947,560.657 167.947,560.49 166.5,558C 167.094,557.536 167.761,557.369 168.5,557.5 Z"/></g>
<g><path style="opacity:0.004" fill="#000000" d="M 98.5,558.5 C 99.8333,559.167 99.8333,559.167 98.5,558.5 Z"/></g>
<g><path style="opacity:0.004" fill="#000000" d="M 168.5,563.5 C 169.833,564.167 169.833,564.167 168.5,563.5 Z"/></g>
<g><path style="opacity:0.008" fill="#000000" d="M 176.5,566.5 C 175.833,567.167 175.833,567.167 176.5,566.5 Z"/></g>
<g><path style="opacity:0.005" fill="#000000" d="M 447.5,569.5 C 448.386,568.224 449.386,568.224 450.5,569.5C 449.767,570.087 448.767,570.087 447.5,569.5 Z"/></g>
<g><path style="opacity:0.027" fill="#44433f" d="M 188.5,578.5 C 192.436,580.766 195.769,583.766 198.5,587.5C 194.564,585.234 191.231,582.234 188.5,578.5 Z"/></g>
<g><path style="opacity:0.004" fill="#000000" d="M 90.5,590.5 C 91.8333,591.167 91.8333,591.167 90.5,590.5 Z"/></g>
<g><path style="opacity:0.004" fill="#000000" d="M 198.5,591.5 C 199.833,592.167 199.833,592.167 198.5,591.5 Z"/></g>
<g><path style="opacity:0.004" fill="#000000" d="M 194.5,598.5 C 195.833,599.167 195.833,599.167 194.5,598.5 Z"/></g>
<g><path style="opacity:0.004" fill="#000000" d="M 202.5,598.5 C 203.833,599.167 203.833,599.167 202.5,598.5 Z"/></g>
<g><path style="opacity:0.02" fill="#323332" d="M 208.5,598.5 C 207.833,599.167 207.833,599.167 208.5,598.5 Z"/></g>
<g><path style="opacity:0.004" fill="#000000" d="M 474.5,606.5 C 475.833,607.167 475.833,607.167 474.5,606.5 Z"/></g>
<g><path style="opacity:0.008" fill="#7e0000" d="M 218.5,607.5 C 217.833,608.167 217.833,608.167 218.5,607.5 Z"/></g>
<g><path style="opacity:0.004" fill="#000000" d="M 226.5,614.5 C 225.833,615.167 225.833,615.167 226.5,614.5 Z"/></g>
<g><path style="opacity:0.008" fill="#7e0000" d="M 231.5,620.5 C 230.833,619.167 230.833,619.167 231.5,620.5 Z"/></g>
<g><path style="opacity:0.004" fill="#000000" d="M 231.5,620.5 C 232.833,621.167 232.833,621.833 231.5,622.5C 231.5,621.833 231.5,621.167 231.5,620.5 Z"/></g>
<g><path style="opacity:0.004" fill="#000000" d="M 231.5,622.5 C 231.631,623.239 231.464,623.906 231,624.5C 230.308,623.563 230.475,622.897 231.5,622.5 Z"/></g>
<g><path style="opacity:0.004" fill="#000000" d="M 235.5,622.5 C 235.217,623.289 234.717,623.956 234,624.5C 233.472,623.184 233.972,622.517 235.5,622.5 Z"/></g>
<g><path style="opacity:0.004" fill="#000000" d="M 239.5,625.5 C 238.833,626.167 238.833,626.167 239.5,625.5 Z"/></g>
<g><path style="opacity:0.004" fill="#000000" d="M 238.5,627.5 C 239.833,628.167 239.833,628.167 238.5,627.5 Z"/></g>
<g><path style="opacity:0.008" fill="#7e7f00" d="M 244.5,629.5 C 243.833,630.167 243.833,630.167 244.5,629.5 Z"/></g>
<g><path style="opacity:0.004" fill="#000000" d="M 438.5,631.5 C 439.833,632.167 439.833,632.167 438.5,631.5 Z"/></g>
<g><path style="opacity:0.004" fill="#000000" d="M 443.5,631.5 C 444.833,632.167 444.833,632.167 443.5,631.5 Z"/></g>
<g><path style="opacity:0.004" fill="#000000" d="M 249.5,633.5 C 249.103,634.525 248.437,634.692 247.5,634C 248.094,633.536 248.761,633.369 249.5,633.5 Z"/></g>
<g><path style="opacity:0.008" fill="#7e0000" d="M 432.5,635.5 C 433.833,636.167 433.833,636.167 432.5,635.5 Z"/></g>
<g><path style="opacity:0.008" fill="#7e7f00" d="M 250.5,638.5 C 251.833,639.167 251.833,639.167 250.5,638.5 Z"/></g>
<g><path style="opacity:0.004" fill="#000000" d="M 254.5,639.5 C 255.833,640.167 255.833,640.167 254.5,639.5 Z"/></g>
<g><path style="opacity:0.004" fill="#000000" d="M 427.5,639.5 C 428.833,640.167 428.833,640.167 427.5,639.5 Z"/></g>
<g><path style="opacity:0.006" fill="#141414" d="M 264.5,646.5 C 264.842,645.662 265.508,645.328 266.5,645.5C 266.591,647.698 265.925,648.031 264.5,646.5 Z"/></g>
<g><path style="opacity:0.008" fill="#7e0000" d="M 264.5,646.5 C 263.833,647.167 263.833,647.167 264.5,646.5 Z"/></g>
<g><path style="opacity:0.004" fill="#000000" d="M 417.5,646.5 C 418.833,647.167 418.833,647.167 417.5,646.5 Z"/></g>
<g><path style="opacity:0.004" fill="#000000" d="M 273.5,650.5 C 273.103,651.525 272.437,651.692 271.5,651C 272.094,650.536 272.761,650.369 273.5,650.5 Z"/></g>
<g><path style="opacity:0.004" fill="#000000" d="M 409.5,653.5 C 410.833,654.167 410.833,654.167 409.5,653.5 Z"/></g>
<g><path style="opacity:0.004" fill="#000000" d="M 413.5,653.5 C 414.833,654.167 414.833,654.167 413.5,653.5 Z"/></g>
<g><path style="opacity:0.004" fill="#000000" d="M 280.5,655.5 C 279.833,656.167 279.833,656.167 280.5,655.5 Z"/></g>
<g><path style="opacity:0.008" fill="#2f0e00" d="M 291.5,662.5 C 291.103,663.525 290.437,663.692 289.5,663C 290.094,662.536 290.761,662.369 291.5,662.5 Z"/></g>
<g><path style="opacity:0.004" fill="#000000" d="M 297.5,666.5 C 297.103,667.525 296.437,667.692 295.5,667C 296.094,666.536 296.761,666.369 297.5,666.5 Z"/></g>
<g><path style="opacity:0.004" fill="#000000" d="M 300.5,670.5 C 301.525,670.897 301.692,671.563 301,672.5C 300.536,671.906 300.369,671.239 300.5,670.5 Z"/></g>
<g><path style="opacity:0.004" fill="#000000" d="M 305.5,671.5 C 305.103,672.525 304.437,672.692 303.5,672C 304.094,671.536 304.761,671.369 305.5,671.5 Z"/></g>
<g><path style="opacity:0.004" fill="#000000" d="M 310.5,675.5 C 311.833,676.167 311.833,676.167 310.5,675.5 Z"/></g>
<g><path style="opacity:0.008" fill="#7e0000" d="M 372.5,675.5 C 373.833,676.167 373.833,676.167 372.5,675.5 Z"/></g>
<g><path style="opacity:0.016" fill="#3e3f3e" d="M 368.5,677.5 C 369.833,678.167 369.833,678.167 368.5,677.5 Z"/></g>
<g><path style="opacity:0.004" fill="#000000" d="M 365.5,679.5 C 366.833,680.167 366.833,680.167 365.5,679.5 Z"/></g>
<g><path style="opacity:0.004" fill="#000000" d="M 358.5,683.5 C 359.833,684.167 359.833,684.167 358.5,683.5 Z"/></g>
<g><path style="opacity:0.004" fill="#000000" d="M 322.5,686.5 C 323.833,687.167 323.833,687.167 322.5,686.5 Z"/></g>
<g><path style="opacity:0.012" fill="#4d4a36" d="M 330.5,685.5 C 331.167,685.5 331.5,685.833 331.5,686.5C 330.503,687.713 329.503,687.546 328.5,686C 329.094,685.536 329.761,685.369 330.5,685.5 Z"/></g>
<g><path style="opacity:0.004" fill="#000000" d="M 345.5,690.5 C 346.833,691.167 346.833,691.167 345.5,690.5 Z"/></g>
</svg>
